<?xml version="1.0" encoding="UTF-8" standalone="no"?>
<!-- Created with Inkscape (http://www.inkscape.org/) -->

<svg
   version="1.1"
   id="svg312"
   width="283"
   height="284"
   viewBox="0 0 283 284"
   sodipodi:docname="001.svg"
   inkscape:version="1.1.2 (b8e25be833, 2022-02-05)"
   xmlns:inkscape="http://www.inkscape.org/namespaces/inkscape"
   xmlns:sodipodi="http://sodipodi.sourceforge.net/DTD/sodipodi-0.dtd"
   xmlns="http://www.w3.org/2000/svg"
   xmlns:svg="http://www.w3.org/2000/svg">
  <defs
     id="defs316" />
  <sodipodi:namedview
     id="namedview314"
     pagecolor="#ffffff"
     bordercolor="#666666"
     borderopacity="1.0"
     inkscape:pageshadow="2"
     inkscape:pageopacity="0.0"
     inkscape:pagecheckerboard="0"
     showgrid="false"
     inkscape:zoom="1.9968297"
     inkscape:cx="-16.776593"
     inkscape:cy="132.96076"
     inkscape:window-width="1920"
     inkscape:window-height="991"
     inkscape:window-x="-9"
     inkscape:window-y="-9"
     inkscape:window-maximized="1"
     inkscape:current-layer="g318" />
  <g
     inkscape:groupmode="layer"
     inkscape:label="Image"
     id="g318">
    <path
       style="fill:#0d0c0c;stroke:none"
       d="m 100.79102,30.288596 c 9.851,4.6067 20.241,7.8737 30,12.7531 6.832,3.4162 13.554,7.1976 20,11.3009 4.955,3.1543 12.128,11.1714 17.985,11.8897 4.918,0.603 11.889,-10.6499 9.354,-14.7701 -2.691,-4.3736 -9.075,-7.2154 -13.339,-9.7739 -11.909,-7.1461 -24.102,-13.4244 -37,-18.5995 -4.624,-1.8553 -12.83,-6.6936 -17.907,-5.1034 -4.507,1.4119 -7.5604,8.2597 -9.093,12.3032 m 35,66 V 204.28859 c 0,9.404 4.033,31.501 -2.318,38.867 -6.682,7.749 -25.421,4.133 -34.681999,4.133 1.253999,4.355 3.713999,14.155 7.509999,16.821 4.048,2.843 11.962,0.999 16.49,0.464 11.463,-1.352 26.057,-0.556 30.2,-14.285 3.372,-11.176 0.8,-26.368 0.8,-38 0,-30.364 -2,-60.652 -2,-91 9.34,9.656 13.493,29.063 20.424,41 14.001,24.11 32.685,45.553 54.576,62.789 13.711,10.796 36.405,31.538 44,4.211 -25.31,-9.336 -49.18,-29.865 -66.575,-50 -3.911,-4.527 -16.236,-15.562 -15.543,-21.999 0.566,-5.258 10.376,-11.332 14.118,-14.577 11.64,-10.092 21.862,-21.753 33,-32.385 2.764,-2.638 11.133,-6.876 11.133,-11.128995 0,-6.414999 -13.131,-12.078499 -18.133,-13.909999 -7.694,16.161994 -21.46,29.459994 -34,41.999994 -5.45,5.45 -10.67,12.16 -18,15 -4.86,-15.359 -14.258,-29.439 -19.33,-44.999994 -1.313,-4.0262 -2.156,-14.6909 -5.987,-16.8827 -3.605,-2.0625 -12.477,-0.1173 -16.683,-0.1173 H 89.791021 c -4.6054,0 -14.7694,-2.136 -18.6821,0.1173 -3.335401,1.9209 -3.115201,10.5451 -1.575601,13.5648 2.134601,4.186899 12.353201,2.3179 16.257701,2.3179 H 135.79102 M 95.791021,150.28859 c -13.8971,33.38 -44.316201,66.902 -78,81 v 3 c 3.6396,2.571 7.4977,8.937 12.0394,9.494 6.7847,0.831 16.7994,-8.508 21.960599,-12.239 20.932001,-15.131 38.284201,-35.094 51.3966,-57.255 4.0234,-6.8 6.7654,-14.484 11.2254,-21 1.794,-2.622 5.114,-5.47 4.407,-9 -0.923,-4.611 -7.423,-10.209 -12.029,-10.678 -3.926,-0.4 -8.014299,1.559 -11.999999,1.663 -14.2965,0.374 -28.699301,0.181 -43.000001,0.011 -6.231799,-0.074 -15.820799,-3.277 -21.682099,-0.393 -3.4147,1.681 -3.5576,12.117 -0.7145,14.369 3.8353,3.038 14.6912,1.028 19.3966,1.028 H 66.79102 Z"
       id="path340" />
  </g>
</svg>
