<?xml version="1.0" encoding="UTF-8" standalone="no"?>
<!-- Created with Inkscape (http://www.inkscape.org/) -->

<svg
   version="1.1"
   id="svg716"
   width="284"
   height="521"
   viewBox="0 0 284 521"
   sodipodi:docname="005.svg"
   inkscape:version="1.1.2 (b8e25be833, 2022-02-05)"
   xmlns:inkscape="http://www.inkscape.org/namespaces/inkscape"
   xmlns:sodipodi="http://sodipodi.sourceforge.net/DTD/sodipodi-0.dtd"
   xmlns="http://www.w3.org/2000/svg"
   xmlns:svg="http://www.w3.org/2000/svg">
  <defs
     id="defs720" />
  <sodipodi:namedview
     id="namedview718"
     pagecolor="#ffffff"
     bordercolor="#666666"
     borderopacity="1.0"
     inkscape:pageshadow="2"
     inkscape:pageopacity="0.0"
     inkscape:pagecheckerboard="0"
     showgrid="false"
     inkscape:zoom="0.7696737"
     inkscape:cx="-261.79925"
     inkscape:cy="200.73441"
     inkscape:window-width="1920"
     inkscape:window-height="991"
     inkscape:window-x="-9"
     inkscape:window-y="-9"
     inkscape:window-maximized="1"
     inkscape:current-layer="g722" />
  <g
     inkscape:groupmode="layer"
     inkscape:label="Image"
     id="g722">
    <path
       id="path1385"
       style="fill:#392d20;stroke:none"
       d="m 36.299251,83.299252 v 5 c -4.6616,0.5953 -0.6589,12.718108 -1,17.000008 l 3,1 c -1.8302,4.465 -2.308,7.663 0,12 l -3,1 c 0.72,10.249 3.8962,25.436 0,35 v 1 3 l 2,44 c -4.8632,4.596 -0.5831,30.439 -1.1543,38 -2.3558,31.181 3.0128,62.868 0.6041,93.999 -0.8208,10.609 -5.585,36.194 0.5502,45.001 l -3,7 c 1.12,18.896 0.159,36.339 -0.1111,55 -0.082,5.661 2.0715,10.866 8.1111,11 4.3726,7.484 33.2258,5.462 42,6.34 43.165999,4.316 86.236999,-2.57 129.999999,1.235 5.673,0.493 43.228,5.855 34,-8.575 25.897,-12.438 -10.059,-28.524 2,-41 v -2 c -2.914,-3.228 -4.009,-22.512 1,-24 -0.936,-9.081 0.234,-46.184 -8,-51 l 2,-8 -3,1 c 2.845,-3.113 4.135,-4.737 3,-9 l -4,1 5,-32 -3,1 -1,-10 2,2 h 1 l 1,-8 -2,2 h -1 l -1,-6 c 3.887,-2.182 6.507,-6.165 1,-8 v -3 h 3 c -2.434,-5.072 -4.764,-12.277 1,-16 l -5,-46 c 5.253,-4.594 3.925,-20.654 -1,-25 3.01,-3.774 -0.195,-35.933 -2,-43 6.56,-1.844 0.818,-12.932 0,-18 l 4,-1 c -0.253,-7.741804 6.64,-17.315308 -1.189,-23.276208 -15.122,-11.5139 -36.763,-5.3453 -53.826,-4.7717 -35.218,1.184 -72.215,3.1962 -107.945599,2.4754 -15.0068,-0.3028 -29.0533,-4.2863 -44.0394,1.5725 M 237.29925,428.29926 c -2.843,0.914 -6.037,1.621 -5,5 v 1 1 c -2.109,3.23 -0.582,5.879 3,7 l 5,9 c -6.07,-2.555 -15.125,1.149 -19,-5 -13.05,3.091 -26.617,3.557 -40.015,3.06 -7.145,-0.265 -15.232,-4.94 -20.985,0.94 h -2 c -3.913,-4.343 -7.899,-4.722 -13,-2 h -1 c -5.914,-3.417 -23.826,2.31 -32,2.47 -22.647299,0.443 -41.285699,-3.998 -62.999999,-8.47 v -3 c -7.4793,-0.243 -6.8759,-3.24 -9,-9 v -1 l 1,-15 v -1 l 4,-2 c 0.8485,-18.704 7.4252,-41.389 2,-60 l 3,-14 h -2 l 2,-5 c -6.5855,-4.045 -3.5877,-19.331 -2,-26 l -3,-1 v -23 l 4,-23 c -10.5729,-9.826 3.4016,-38.657 -6,-49 1.817,-6.057 6.4288,-12.921 1,-18 1.3656,-5.276 3.458,-9.965 -1,-14 l 4,-12 h -3 c -0.5148,-4.096 -1.6694,-7.344 2,-10 -4.7151,-4.29 -2.604,-8.294 -3,-14 10.847,-6.7 -0.1243,-27.02 7,-32 -3.1872,-10.888504 2.5573,-13.575408 10,-19.000008 h 1 l 16,2 c 2.8649,2.134 5.0138,2.0547 7,-1 7.0052,1.1382 22.360999,-5.2875 26.999999,0 l 4,-3 h 1 c 5.31,4.5751 6.714,9.196104 7,16.000008 l -9,1 c -3.151,9.951 -35.108499,2.74 -44.165099,3.975 -7.1222,0.972 -8.5077,9.575 -3.8349,14.025 l -3,22 8,6 7,-29 c 4.1982,0.811 7.6362,2.055 11,-1 l 9,2 1,-3 5.999999,3 c 4.515,-7.852 39.189,-4.068 46,0 l 1,-3 22,-1 c 2.807,-4.285 8.867,-2.846 13,-1 1.481,5.128 7.403,5.402 9.802,10.058 6.608,12.821 -3.968,17.927 13.198,22.942 v -4 l -1,-21 4,-1 c -10.234,-22.417 -51.298,-17.938 -73,-18 -1.823,-17.080208 5.421,-10.969608 14,-19.000008 15.6,2.8977 36.424,2.8423 52,2.7392 5.371,-0.0356 18.168,-1.2923 22.401,2.3542 4.93,4.246704 2.809,16.211608 2.56,21.906608 -0.83,18.939 -2.546,39.142 -0.747,58 5.714,59.927 4.969,120.398 6.723,181 0.606,20.939 -8.138,53.822 0.063,73 m -114,-335.666708 0.333,0.3334 c -0.493,0.1644 -1.106,-0.3334 -0.333,-0.3334 m -20,45.666708 c 1.155,16.461 35.905,11.556 47,9 -4.174,12.516 -12.838,13.178 -22,21 h -1 c -6.449,-3.896 -10.491,5.873 -7.377,10.977 2.686,4.401 9.509,4.361 13.322,8.117 5.391,5.311 8.847,15.035 12.055,21.906 -27.957,6.58 -61.989399,4.797 -89.999999,6 0.1462,16.156 13.0391,11.033 24.0147,12.16 22.288299,2.287 46.776299,-6.654 69.985299,-6.16 -8.296,18.314 4.183,44.101 4.214,63.91 0.014,9.029 -4.767,16.574 1.786,25.09 -4.61,6.582 -2.458,16.427 -3.17,24 -1.74,18.53 -7.581,36.301 -6.83,55 h 4 c 3.578,-7.659 8.313,-10.376 4,-19 5.496,-3.037 6.254,-7.905 3,-13 l 6,-12 c -7.788,-7.756 -1.511,-18.501 -1.099,-28.17 0.91,-21.365 7.911,-52.847 0.099,-72.83 l 3,1 c 0.598,-9.421 -9.581,-28.449 7,-24 14.464,-8.306 29.551,11.407 43,-3 l -2,-9 c -4.161,-1.75 -16.379,-2.916 -19,1 l -21,-4 c -14.029,10.629 -30.027,-17.081 -28.852,-28.857 0.497,-4.974 6.066,-6.256 5.852,-13.143 l 4,-3 c 10.544,-0.18 27.093,-21.099 12.871,-27.411 -16.385,-7.273 -46.107,2.698 -62.871,4.411 m 142,163 -2,9 h 4 l -2,-9 m -99,89 c -3.235,6.556 -6.099,18.566 -5,26 -15.723,-3.247 -20.082,-22.748 -39,-22 4.824,17.123 33.092,49.012 52,41 l -4,-18 c 4.472,-4.282 0.256,-21.046 0,-27 h -4 m 1,14 -1,1 z" />
  </g>
</svg>
