<?xml version="1.0" encoding="UTF-8" standalone="no"?>
<!-- Created with Inkscape (http://www.inkscape.org/) -->

<svg
   version="1.1"
   id="svg1521"
   width="273"
   height="521"
   viewBox="0 0 273 521"
   sodipodi:docname="006.svg"
   inkscape:version="1.1.2 (b8e25be833, 2022-02-05)"
   xmlns:inkscape="http://www.inkscape.org/namespaces/inkscape"
   xmlns:sodipodi="http://sodipodi.sourceforge.net/DTD/sodipodi-0.dtd"
   xmlns="http://www.w3.org/2000/svg"
   xmlns:svg="http://www.w3.org/2000/svg">
  <defs
     id="defs1525" />
  <sodipodi:namedview
     id="namedview1523"
     pagecolor="#ffffff"
     bordercolor="#666666"
     borderopacity="1.0"
     inkscape:pageshadow="2"
     inkscape:pageopacity="0.0"
     inkscape:pagecheckerboard="0"
     showgrid="false"
     inkscape:zoom="0.7696737"
     inkscape:cx="-425.50499"
     inkscape:cy="279.98878"
     inkscape:window-width="1920"
     inkscape:window-height="991"
     inkscape:window-x="-9"
     inkscape:window-y="-9"
     inkscape:window-maximized="1"
     inkscape:current-layer="g1527" />
  <g
     inkscape:groupmode="layer"
     inkscape:label="Image"
     id="g1527">
    <path
       style="fill:#34291b;stroke:none"
       d="m 57.102246,50.50374 -1,1 1,4 3,-4 -1,-1 h -2 m 3,5 v 2 h 2 v -2 h -2 m -6,5 v 6 c -7.0675,-0.0195 -40.2429,8.1213 -22,18 -4.1757,15.378996 -2.7778,49.132 1,65 h -2 c 2.8877,15.105 8.6989,63.95 2,77 l 2,30 c -5.2133,4.555 -0.0221,21.117 -1.456,28 -6.0101,28.848 -9.9017,78.668 -5.544,108 -8.6849,6.811 -7.4585,62.322 -2,71 10.1443,-2.26 15.5097,5.694 26,0 l 1,5 13,-6 c 1.1202,6.6 39.593004,7.008 46.000004,2 l 1,5 4,-4 c 4.849,2.975 42.23199,4.217 44.99999,0 l 1,3 c 18.709,-4.213 53.146,-4.653 71,4 h 1 c 18.079,-23.848 -46.143,-11.019 -52,-17 l -7,3 -8,-6 h -1 l 1,5 -18.99999,-2 -1,3 -5,-3 -9,2 c -5.305,-1.696 -26.528,-5.891 -30,-2 l -16.000004,-3 1,2 h -1 c -16.3693,-7.848 -41.8621,9.272 -53,-10 l 4,-1 -4,-7 c 6.9408,-12.763 5.728,-38.288 3,-53 4.4604,-3.959 3.5003,-27.884 2,-34 l -2,2 h -1 l -2,-3 c 12.9006,-3.285 -9.556,-39.76 3,-46 -0.7674,-7.303 4.728,-20.896 -1,-23 v -5 c 5.7236,-2.376 7.5697,-8.396 0,-9 l 1,-6 c 8.3106,-3.482 2.5286,-9.253 0,-15 10.4378,-4.568 4.3193,-20.143 4.2917,-28.039 -0.0734,-20.962 -2.7003,-47.29 0.7083,-67.961 l -5,2 4,-11 c -8.242,-5.296 1.2763,-15.615 -7,-17 1.7204,-10.719 8.6372,-10.335 4,-22 6.3898,-3.305 6.9045,-8.3862 3,-14 10.9515,-6.1389 28.2939,1.3534 38,-6 h 1 l 2,4 14,-4 c 2.425,7.6517 9.907004,2.0068 15.000004,0 l 2,4 c 25.86,-7.4799 13.717,39.362 19,55 l -71.000004,2 c -0.4709,5.336 -0.0114,22.712 6,24 -2.9118,5.95 -2.2927,10.714 -1,17 -7.031,2.827 -2.2408,9.734 1,14 l -5,15 6,9 3,-2 c 19.2816,5.12 3.8124,-58.264 8.8002,-63.332 6.8657,-6.976 46.672804,-4.1 59.199804,-10.668 l 1,5 17.99999,2 c 9.176,3.761 16.16,1.366 25,-2 1.948,5.806 12.401,0.638 18,2 l -1,3 c 12.585,6.998 6.274,41.936 9,54 20.091,3.896 13.954,-11.751 8,-24 3.894,-2.775 3.566,-9.988 0,-13 8.936,-20.154 -0.764,-18.736 -5,-33 l -5,1 c -5.531,-9.712 -29.082,-1.822 -39,-3 l -9,3 c -2.905,-4.476 -8.35599,-2.199 -12.99999,-2 8.89299,-16.288 3.313,-36.157 -2,-53 9.406,4.7484 20.62799,2.0753 29.99999,-1 3.314,5.091 10.124,1.0193 15,0 2.455,4.4516 6.339,3.9964 11,4 l 4,-4 c 9.839,14.747996 39.19,0.5132 31,33 13.425,16.93 -9.723,63.009 4,80 v 1 c -6.093,8.697 -3.934,54.14 -1,65 l -2,19 h -2 c 1.052,5.931 4.422,29.548 0,33 3.407,6.631 2.547,14.882 1,22 3.995,6.91 2.208,51.788 -3,59 v 1 l 1,14 3,1 -5,13 v 1 l 5,7 v 1 c -1.951,2.31 0.569,13.879 3,16 l -3,9 v 1 l 11,5 4,-4 -4,-5 2,-5 -2,-5 -3,-1 c 2.351,-4.797 8.19,-26.154 -1,-26 v -6 -1 c 4.88,-3.961 3.922,-13.689 2,-19 l -4,-19 3,-9 -3,-1 c 2.661,-4.437 4.783,-9.26 0,-13 2.616,-9.645 -0.129,-29.172 7,-37 -3.467,-11.028 6.02,-28.359 -8,-34 5.882,-9.686 22.653,-57.046 9,-66 1.066,-5.633 -2.529,-13.733 3,-17 -1.154,-7.274 -4.751,-25.067 -1,-31 l -6,-35 c 5.204,-2.161 7.536,-7.601 2,-11 3.121,-7.294 1.189,-9.887 1.544,-17.09 0.378,-7.649 4.339,-14.8371 3.063,-22.91 -2.83,-17.9064 -47.267,0.32 -58.607,-5 -4.851,-0.0406 -25.348,-5.1642 -26,0 l -13.99999,-3 -1,3 -15,-1 h -1 c -8.069,4.3203 -26.468,-5.6689 -32,2 l -30.000004,-5 c -3.048,4.5941 -13.1074,0.25 -18,0 -0.8954,-3.9418 -0.8116,-6.0113 2,-9 l -5,-1 m 88.000004,22 -1,1 1,-1 m -34,97 c -16.045304,27.176 39.486,16.033 50.99999,14 v 6 l -3,-2 -2.99999,11 h -3 l -1,14 c -6.951,1.131 -26.091,21.771 -28,29 5.576,6.642 14.804,14.656 24,16 v 4 h 5 l 4,10 -1,9 4.99999,8 -32.99999,-2 -1,3 -32.000004,-3 -3,6 h -1 c -5.8357,-9.036 -31.8549,-6.765 -34,4 7.6706,5.569 26.5998,9.852 35,4 h 1 c 14.961004,8.826 53.427004,-0.686 69.999994,0 11.639,26.088 -4.4,55.422 -2,82 h -3.99999 l -3,5 2,6 -10,1 h -1 -9 v -5 l -6,-4 -7,2 -1,-3 -3,1 v -2 c -22.275904,-4.177 -9.819,3.401 -9,14 l 27,12 c -1.151,6.321 3.734,10.91 7,16 -6.72,2.254 -0.436,8.279 2,12 4.136,-0.734 10.185,3.377 13.52599,0.382 4.808,-4.31 -3.30899,-11.706 5.474,-14.382 1.863,-8.735 -1.842,-18.773 -4,-27 h 4 v 5 c 2.047,-3.094 3.849,-19.099 1,-21 3.225,-8.058 9.895,-7.632 8,-18 l -4,-2 c 7.987,-1.329 9.237,-27.052 1,-28 v -2 c 7.821,-1.294 6.633,-8.851 0,-11 4.722,-4.492 6.378,-7.53 7,-14 l -5,-1 c 4.647,-5.296 23.465,-4.733 31,-6 17.428,39.627 27.293,-35.656 4,-9 -9.474,-3.838 -24.625,-1.213 -35,-1 -0.561,-4.15 -1.746,-6.278 -6,-7 5.227,-4.894 8.387,-12.059 -1,-14 -0.254,-7.665 -7.591,-13.405 -12.99999,-18 l 2,1 v -1 l -3,-7 -4,1 v -7 c 5.216,-3.065 8.716,-8.129 9.99999,-14 l -3.99999,-1 v -6 l 6.99999,1 10,-6 -1,-2 3,-1 -1,-3 c 5.164,-2.006 6.717,-6.756 7,-12 l 8,-5 2,-16 c -19.434,-8.937 -54.09299,-0.09 -77.99999,-2 m -63.000004,22 v 3 h 1 l 1,-3 h -2 m -3,75 1,3 h 1 v -3 h -2 m 199.999994,49 -2,-3 2,3 m -1.333,12.667 -0.334,0.666 0.334,-0.666 m -79.667,53.333 v 5 l -2,-5 h 2 m -12.99999,9 1,1 -1,-1 m 95.99999,6.333 c 0.773,0 0.16,0.498 -0.333,0.334 l 0.333,-0.334 m -75,1.667 1,1 -1,-1 m -26.99999,30 -1,1 1,-1 m -4.333,13.333 0.666,0.334 -0.666,-0.334 m 13.333,0.667 1,1 -1,-1 m 30.99999,1 1,1 -1,-1 m 66,2 1,5 -4,-5 z"
       id="path1817" />
  </g>
</svg>
