<?xml version="1.0" encoding="UTF-8" standalone="no"?>
<!-- Created with Inkscape (http://www.inkscape.org/) -->

<svg
   version="1.1"
   id="svg1922"
   width="277"
   height="521"
   viewBox="0 0 277 521"
   sodipodi:docname="007.svg"
   inkscape:version="1.1.2 (b8e25be833, 2022-02-05)"
   xmlns:inkscape="http://www.inkscape.org/namespaces/inkscape"
   xmlns:sodipodi="http://sodipodi.sourceforge.net/DTD/sodipodi-0.dtd"
   xmlns="http://www.w3.org/2000/svg"
   xmlns:svg="http://www.w3.org/2000/svg">
  <defs
     id="defs1926" />
  <sodipodi:namedview
     id="namedview1924"
     pagecolor="#ffffff"
     bordercolor="#666666"
     borderopacity="1.0"
     inkscape:pageshadow="2"
     inkscape:pageopacity="0.0"
     inkscape:pagecheckerboard="0"
     showgrid="false"
     inkscape:zoom="0.7696737"
     inkscape:cx="-430.70199"
     inkscape:cy="216.32544"
     inkscape:window-width="1920"
     inkscape:window-height="991"
     inkscape:window-x="-9"
     inkscape:window-y="-9"
     inkscape:window-maximized="1"
     inkscape:current-layer="g1928" />
  <g
     inkscape:groupmode="layer"
     inkscape:label="Image"
     id="g1928">
    <path
       style="fill:#34271a;stroke:none"
       d="m 248.89776,55.109726 -5,7 h -4 c -5.373,-10.2379 -25.36,-1.7159 -35.00001,-3.2755 -4.384,-0.7092 -10.624,-3.5868 -14,0.2755 l -29,-4 c -5.919,6.0442 -20.824,5.8628 -28.985,6.0247 -17.64,0.3499 -36.738097,3.3882 -54.184797,1.1628 -4.4513,-0.5678 -8.1603,-2.8274 -12.8302,-3.1875 l -27,6 -6,-6 c -5.0284,0.1071 -11.3696,0.6263 -13.5478,6.0401 -1.8806,4.6741 3.3667,10.3293 3.9629,15.0903 1.5689,12.527597 -1.8492,32.008594 4.5849,42.869594 -8.1123,2.603 -8.7427,23.181 -6,30 l -3,1 c 2.5397,13.631 -0.4205,25.735 0.1551,38.985 0.5964,13.731 3.5101,29.31 0.8133,43.015 -1.3572,6.897 -4.2591,29.801 2.0316,34 l -3,13 4,9 -1,2 -3,1 3,5 c -2.6558,1.941 -0.1283,4.95 -0.2639,8.005 -0.3292,7.417 -1.364,14.575 -1.7963,21.995 -1.1205,19.233 -1.9819,39.653 -1.6759,59 0.1649,10.425 3.1165,26.562 -2.2639,36 l 2,3 -3,1 c 2.9769,9.391 -3.17246,20.696 0.9931,28.896 3.3751,6.644 16.5938,11.797 22.0069,5.104 6.3539,3.495 10.5339,3.018 17,0 3.5217,4.985 9.8568,2.167 15,3.21 16.9679,3.439 36.527997,-1.622 53.999997,2.79 h 1 c 5.313,-3.671 10.044,-0.66 16,-1.796 23.406,-4.463 47.64,4.239 71.00001,4.22 8.401,-0.007 26.226,4.864 29,-6.424 l 7,-3 c -3.304,-0.69 -5.088,-0.921 -7,2 l -5,-2 c 1.538,-5.829 2.477,-8.901 -4,-11 5.451,-10.014 2.613,-22.185 4,-33 l -3,-1 c -0.171,-4.937 -3.655,-13.542 -8,-16 v -2 c 4.871,-2.758 4.201,-5.908 4,-11 h -3 l 6.948,-34 3.052,-11 c 6.101,-1.296 4.839,-19.89 -1,-21 4.398,-8.75 1.208,-16.081 2.488,-25 0.603,-4.209 3.22,-8.633 4.191,-13 0.922,-4.145 2.971,-9.81 -0.679,-13 l 5,-17 c -9.049,-5.197 6.077,-15.783 4,-25 2.66,-1.935 2.967,-3.334 1,-6 v -1 l 3,-6 -4,-11 c 7.551,-4.498 9.22,-24.163 7,-32 8.961,-0.106 9.946,-4.99 9,-13 h -5 l 5,-21 c -2.703,-7.795 -1.898,-15.951 0.171,-23.999 1.465,-5.697 4.611,-8.917 2.829,-15.001 h -6 c 4.694,-10.817997 7.12,-22.639694 3.749,-33.999194 -1.724,-5.8093 -2.213,-11.2423 -9.749,-10.0008 l -8,-1 m -29,14 -2,4 4,-3 h 1 l 7,-1 4,4 2,10 -2,3 v 1 c 12.989,12.717997 7.385,37.106994 8.643,52.999994 0.649,8.201 3.074,16.666 2.554,25 -0.507,8.113 -4.978,19.63 -1.197,27 v 1 l -7,20 c 2.034,1.768 2.034,3.231 0,5 0.758,5.16 -1.341,9.909 -1.073,15 0.202,3.82 2.497,7.169 2.577,11 0.447,21.34 -3.5,42.874 -6.398,64 -0.976,7.116 -4.332,13.783 -4.73,21 -0.148,2.675 1.486,7.199 -0.979,9.208 -2.714,2.211 -6.478,-1.877 -9.436,-1.805 -10.52501,0.257 -21.28401,0.899 -31.96101,1.504 -5.675,0.321 -9.657,-1.446 -14,3.093 l -7,-1 v -1 l 2,-2 -5.975,-0.488 -7.756,-23.754 -7.269,-14.758 h 7 c -0.767,-6.741 7.773,-20.277 15,-20 l 22.078,-30.285 1.444,-14.139 3.478,-23.576 c 4.12,-1.132 5.016,-2.826 5,-7 l -17.004,-5.202 -25.035,-1.1 -15.961,2.302 h -1 c -3.856,-2.325 -5.816,0.151 -10.001,0.115 -5.772,-0.05 -23.371,-5.439 -25.792,2.994 -3.961,13.797 15.36,5.429 20.793,4.75 3.306,-0.413 6.115,0.839 9,-0.859 12.975,0.837 21.645,1.128 34,5.461 3.088,1.084 8.787,0.75 11.012,3.281 3.79,4.313 0.198,11.473 -0.341,16.258 -2.248,19.966 -16.368,42.921 -35.671,49 0.694,6.618 -4.282,12.378 -11,12 l -3,2 5,17 3,-1 9,27 c -15.072,6.077 -34.448,3.11 -49.999997,3.468 -6.8782,0.159 -15.4103,1.914 -22.0895,1.091 -3.6504,-0.45 -6.0394,-2.694 -9.9105,-2.559 -6.4501,-4.454 -10.9144,-2.445 -17,1 6.7304,16.957 33.5902,17.421 49,13 4.0686,3.919 9.888997,2.023 14.999997,1.003 8.398,-1.675 27.687,-7.778 35.522,-2.773 7.694,4.914 4.723,27.762 6.478,35.77 l 0.748,10.715 -2.748,11.285 v 1 l -2,6 -13,8 -6,-3 c -1.337,7.77 -10.92,5.715 -17,6.407 -11.1382,1.267 -24.005597,-2.769 -32.682897,-9.616 -3.3175,-2.618 -7.2971,-14.366 -13.9413,-10.503 -2.5494,1.482 -0.2665,7.224 -0.3758,9.712 7.4361,3.949 9.8397,13.531 15.723,19.008 7.374,6.864 27.994997,8.195 36.276997,3.992 l 2,7 2,-7 c 6.072,0.408 16.489,-1.773 21,-6 l 6,-1 -1,2 h 1 l 7,-12 c -6.008,-8.613 5.862,-7.82 6,-16 5.842,-3.162 3.92,-8.967 4.19,-14.675 0.662,-14.023 -2.306,-27.11 -2.19,-41.325 19.57,-6.743 42.567,6.654 62.00001,-1 l -2,41 v 1 c -2.877,5.226 -2.326,10.327 -1,16 l -3,1 -2.117,10 -0.883,16 8,8 -3,17 -1,1 c -8.268,-1.529 -26.57301,2.525 -32.00001,-5 l -2,2 -91.999997,-0.189 -33,-3.13 -24,-1.681 h -1 l -5,-2 -5,-6 -3,-14 4,-3 c -3.5366,-0.659 -4.0825,-1.934 -1,-4 l -4,-1 c 0.1597,-4.864 1.3646,-6.498 6,-8 l -1,-3 -3,1 v -1 c 1.5565,-2.636 0.4809,-3.461 -2,-5 l 5,-14 -3,-1 2,-11 3,-2 -4,-1 c 0.5179,-4.066 -0.3499,-6.079 -4,-8 l 2,-6 -1,-4 c 2.8192,-3.391 -0.4056,-4.322 -0.1782,-8.09 0.1695,-2.809 2.5898,-4.949 2.6265,-7.82 0.0834,-6.531 -3.6205,-9.29 3.5517,-14.09 l -4,-7 c 7.8762,-4.801 0.1724,-13.677 5,-17 l 1,4 h 2 l 1,-20 -5,3 c 3.1599,-5.34 7.1077,-10.114 0,-14 1.9673,-4.142 6.2831,-7.63 3,-12 l -2,-20 4,-13 h -3 l 6,-10 v -1 c -6.554,-5.638 -5.1932,-12.814 -2,-20 l -4,-2 2,-7 c -5.4678,-3.368 -3.0192,-9.847 -1,-15 -6.9001,-2.934 -1.7869,-5.589 -1.6875,-11.015 0.1848,-10.086 0.2253,-19.113 2.3387,-28.986 0.9928,-4.637 -2.2902,-7.871 2.3488,-10.999 0.1937,-5.014 1.8582,-7.978 -2,-12 l 7,-11 -4,-1 v -5.999997 c 8.1924,-5.968 0.5751,-12.688997 6.01,-18.392797 4.3836,-4.6004 12.8272,1.5107 14.99,-7.6072 24.3626,3.9195 50.447997,-1.3106 74.999997,-3.5856 7.444,-0.6898 14.618,1.7207 22,2.2608 12.643,0.9249 25.302,0.2273 37.985,1.662 9.384,1.0614 18.99001,-6.9431 28.01501,-3.3372 m -88.00001,84.999994 4,2 v 1 c -14.206,-2.637 -29.57,-0.384 -43.999997,-1.204 -5.0843,-0.29 -9.5005,-5.126 -14.2423,-4.317 -4.5415,0.775 -4.4473,4.824 -4.7577,8.521 l -14,-1 c -2.8151,5.026 -4.0161,9.363 0,14 -4.4574,5.885 -0.2309,12.621 0.3241,19 1.0815,12.432 -0.1883,25.552 0.6759,38 l 5,2 c -0.9128,5.838 5.537,4.808 7.3858,0.585 2.6001,-5.94 3.2038,-31.868 -5.3858,-30.585 5.2695,-7.834 13.1882,-25.696 4,-33 v -1 l 3,-8 9.7292,5.543 30.231797,2.819 19.324,-3.458 27.715,1.096 c 3.211,5.344 7.607,3.633 13.039,4.247 5.678,0.641 11.317,-1.382 16.961,-0.691 8.333,1.021 16.423,3.351 25.00001,2.444 l 0.493,25 -2.874,11.871 8.381,7.129 h 1 c 4.415,-4.62 7.279,-8.307 6,-15 10.517,-6.359 3.918,-18.384 7.09,-28 1.324,-4.016 5.454,-10.366 2.114,-14.348 -5.025,-5.991 -15.256,-0.256 -19.204,-6.652 l -19.05001,-2.628 -17.911,5.57 -33.039,-1.942 -3,3 3,-7 -3,-1 c 1.314,-5.894 -4.278,-8.866 -3.955,-14.424 1,-17.243 3.843,-33.206 2.742,-50.575994 -0.373,-5.8782 -6.721,-17.9507 -13.94,-10.0617 -2.672,2.9204 3.124,12.7957 2.725,17.057697 -2.004,21.400997 0.033,42.777997 -1.572,64.003997 M 254.89776,88.109726 v 4.999997 l -2,-4.999997 h 2 m 1,8.999997 c 0.86,10.890997 0.089,22.419997 1.286,32.999997 0.701,6.189 2.675,15.772 -1.286,21 v 1 l 2,2 c -8.174,1.331 -10.101,-6.327 -11,-13 3.747,-3.713 1.355,-6.387 2.09,-11 1.628,-10.225 -0.165,-23.709 6.91,-32.999997 m -1,58.999997 -1,1 1,-1 m -82.00001,2 v 2 l -16,1 c 2.965,-4.57 11.01,-2.972 16,-3 m 80.66701,2.667 -0.334,0.666 0.334,-0.666 m -0.667,2.333 -4,26 h -1 v -24 l 5,-2 m -181.000007,21 -1,1 1,-1 m 167.000007,5 1,1 -1,-1 m -208.000007,19 -1,1 1,-1 m 0,10 -1,1 1,-1 m 35,13 -1,1 1,-1 m 161.000007,117 -1,1 1,-1 m -64.00001,2 -1,1 1,-1 m 3.667,16.333 0.666,0.334 -0.666,-0.334 m -140.666997,1.667 v 2 h 2 v -2 h -2 m 120.999997,39 -1,3 1,-3 m -31,16 1,1 -1,-1 m -87.999997,10 3,2 -3,-2 m 115.999997,4 v 3 l 2,-3 h -2 m -2,3 1,1 -1,-1 m -36,5 1,1 -1,-1 m 30,0 1,1 -1,-1 m 14,0 -3,4 3,-4 m -122.999997,1 -1,1 1,-1 m 84.999997,4 2,3 -2,-3 m 14,0 -1,5 1,-5 m 104.00001,17 v 2 h -2 l 2,-2 m 18,1 v 2 h 2 z"
       id="path1950" />
  </g>
</svg>
