<?xml version="1.0" ?><!-- Created with Inkscape (http://www.inkscape.org/) --><svg xmlns:inkscape="http://www.inkscape.org/namespaces/inkscape" xmlns:sodipodi="http://sodipodi.sourceforge.net/DTD/sodipodi-0.dtd" xmlns="http://www.w3.org/2000/svg" xmlns:svg="http://www.w3.org/2000/svg" version="1.1" id="svg9" width="269" height="284" viewBox="0 0 269 284" sodipodi:docname="000.svg" inkscape:version="1.1.2 (b8e25be833, 2022-02-05)">
  <defs id="defs13"/>
  <sodipodi:namedview id="namedview11" pagecolor="#ffffff" bordercolor="#666666" borderopacity="1.0" inkscape:pageshadow="2" inkscape:pageopacity="0.0" inkscape:pagecheckerboard="0" showgrid="false" inkscape:zoom="2.56" inkscape:cx="84.570313" inkscape:cy="139.64844" inkscape:window-width="1920" inkscape:window-height="991" inkscape:window-x="-9" inkscape:window-y="-9" inkscape:window-maximized="1" inkscape:current-layer="g15"/>
  <g inkscape:groupmode="layer" inkscape:label="Image" id="g15">
    <path style="fill:#0a0b0b;stroke:none" d="m 117.21875,26.390625 c 1.065,51.595 2,103.263005 2,155.000005 v 38 c 0,3.88 1.407,11.386 -1.603,14.397 -4.406,4.406 -20.4647,1.603 -26.397,1.603 h -74 c 0,4.151 -2.0826,16.231 2.3179,18.397 4.4135,2.171 11.0477,-0.155 15.6821,-0.358 11.6221,-0.509 23.3663,-0.039 35,-0.039 h 133 c 11.819,0 24.259,-1.1 36,0.285 3.529,0.417 11.328,2.45 13.972,-0.888 2.818,-3.558 1.028,-13.034 1.028,-17.397 h -117 v -73 c 0,-6.838 -2.833,-21.897 1.028,-27.682 3.008,-4.508 15.231,-2.318 19.972,-2.318 19.348,0 38.729,0.906 58,0.999 3.64,0.018 9.338,1.043 12.682,-0.602 3.546,-1.745 3.517,-13.981 1.29,-16.794 -3.003,-3.792 -16.514,-1.698 -20.972,-1.588 -17.314,0.424 -34.62,0.985 -52,0.985 -4.59,0 -14.888,1.905 -18.397,-1.603 -3.855,-3.856 -1.603,-16.295705 -1.603,-21.397005 0,-15.4542 -1.368,-31.6242 0.171,-47 0.42,-4.2068 4.694,-12.789 1.222,-16.2577 -4.136,-4.1317 -15.987,-2.7423 -21.393,-2.7423 z" id="path207"/>
  </g>
<circle cx="134" cy="200" r="5" fill="red"/></svg>