<?xml version="1.0" ?><!-- Created with Inkscape (http://www.inkscape.org/) --><svg xmlns:inkscape="http://www.inkscape.org/namespaces/inkscape" xmlns:sodipodi="http://sodipodi.sourceforge.net/DTD/sodipodi-0.dtd" xmlns="http://www.w3.org/2000/svg" xmlns:svg="http://www.w3.org/2000/svg" version="1.1" id="svg583" width="274" height="284" viewBox="0 0 274 284" sodipodi:docname="003.svg" inkscape:version="1.1.2 (b8e25be833, 2022-02-05)">
  <defs id="defs587"/>
  <sodipodi:namedview id="namedview585" pagecolor="#ffffff" bordercolor="#666666" borderopacity="1.0" inkscape:pageshadow="2" inkscape:pageopacity="0.0" inkscape:pagecheckerboard="0" showgrid="false" inkscape:zoom="1.4119718" inkscape:cx="-102.33915" inkscape:cy="144.12469" inkscape:window-width="1920" inkscape:window-height="991" inkscape:window-x="-9" inkscape:window-y="-9" inkscape:window-maximized="1" inkscape:current-layer="g589"/>
  <g inkscape:groupmode="layer" inkscape:label="Image" id="g589">
    <path style="fill:#0d0d0d;stroke:none" d="m 27.541151,264.33417 h 17 c 0,-4.197 -1.72,-13.278 2.317896,-15.972 2.9692,-1.982 8.2927,-1.028 11.6821,-1.028 h 28 105.000003 28 c 3.101,0 7.971,-0.822 10.397,1.603 3.147,3.148 1.603,11.301 1.603,15.397 h 17 v -175.000006 -45 l -1.028,-16.3958 -24.972,-0.6042 h -76 -86.000003 l -22.999996,-0.0147 -8.3966,0.2832 -1.6034,14.7315 v 43 179.000006 m 203.999999,-32 h -132.000003 -37 l -15.6821,-0.603 -2.317896,-10.397 v -31 -110.000006 -27 l 1.6034,-9.9722 10.396596,-1.0278 h 27 106.000003 30 l 10.972,1.6034 1.028,13.3966 V 93.334167 232.33417 m -80,-183.000006 v 31 H 83.541147 l -23.3966,0.0278 -1.6034,13.972203 h 67.000003 c 6.418,0 20.234,-2.6074 25.682,1.028 2.831,1.889 2.25,6.032003 2.603,8.972003 1.002,8.339 1.906,16.686 3.136,25 1.493,10.086 3.441,20.034 5.579,30 0.835,3.894 3.314,9.028 2.343,13 -1.441,5.894 -8.018,10.408 -12.343,14.13 -11.456,9.861 -24.7,19.595 -39,24.87 13.056,27.997 45.322,-12.365 59,-22 4.657,11.187 12.452,26.566 25,30.351 15.241,4.597 32.78,-13.744 28.227,-29.261 -1.197,-4.077 -6.675,-6.763 -9.227,-10.09 h -2 c -1.608,6.677 -1.736,20.402 -9.185,23.712 -8.25,3.666 -21.82,-21.999 -21.183,-28.712 0.456,-4.81 5.164,-9.9 7.518,-14 5.408,-9.421 9.433,-19.268 14.174,-29 1.598,-3.279 5.831,-7.127 5.809,-10.896 -0.033,-5.808 -11.777,-8.452 -16.133,-9.104 l -17,44 c -8.341,-16.616 -9.998,-43.572 -10,-62.000003 15.311,0 32.864,2.421 47.941,-0.1481 5.13,-0.874 6.116,-11.998403 1.625,-14.247703 -3.256,-1.6311 -8.124,0.2057 -11.566,0.3564 -9.565,0.4189 -28.051,3.368 -36.772,-0.564 -9.239,-4.1655 2.034,-19.9455 -1.349,-26.0826 -2.408,-4.3684 -12.577,-3.5153 -16.879,-4.314 m 29,6 c 1.306,4.5584 4.656,6.8304 8,10.0394 3.168,3.0403 5.894,6.8668 9.285,9.6273 4.242,3.4526 12.455,-1.072 11.794,-6.6667 -0.62,-5.2467 -14.607,-17.8038 -20.079,-17.733 -3.195,0.0413 -6.403,3.1326 -9,4.733 m -108.381903,57.028006 -0.6181,23.972 0.0671,26.397 13.9329,1.603 h 35.000003 l 13.396,-1.028 0.604,-24.972 -0.032,-25.397 -13.968,-1.603 H 85.541147 l -13.3819,1.028 m 48.381903,10.972 v 29 H 85.541147 v -29 h 35.000003 m -64.000003,67 c 0.3528,4.32 1.3149,15.666 6.2747,17.289 4.5661,1.494 15.6948,-4.459 20.7253,-5.482 13.4589,-2.735 26.661003,-6.319 40.000003,-9.576 4.741,-1.157 12.943,-2.098 16.436,-5.744 3.152,-3.29 3.224,-10.182 3.564,-14.487 -29.262,4.321 -56.687303,17.916 -87.000003,18 z" id="path611"/>
  </g>
<circle cx="137" cy="144" r="5" fill="red"/></svg>